#!OML:ASF X:\für Bonn\!DataBase\2005_08_11_Bastian_Final\c3d\Bastian.ASF
:FULLY-SPECIFIED
:DEGREES
31
root -13.5531 17.4589 -0.293032 128.762 -75.2045 -139.521
lowerback 8.33427 1.29667 9.28721
upperback 5.24035 1.93427 5.65794
thorax 0.954152 0.920731 0.549065
lowerneck -8.3243 -2.54151 -4.19505
upperneck -8.97413 -3.24541 3.37489
head -1.29131 -1.66138 1.72543
rclavicle -2.26615e-014 -4.53229e-014
rhumerus -8.90351 14.9029 -72.6206
rradius 70.8573
rwrist 0.828739
rhand -12.1062 7.43483
rfingers 7.12502
rthumb 13.9546 -22.0769
lclavicle -2.26615e-014 -4.53229e-014
lhumerus -42.6126 -0.27701 90.7127
lradius 12.5648
lwrist 4.59665
lhand -4.62521 -5.48386
lfingers 7.12502
lthumb 21.1535 23.3821
rfemur 7.98909 -3.48098 32.4348
rtibia 24.6349
rfoot -13.3127 2.43569
rtoes 2.25209
lfemur -16.0409 2.9419 -3.67584
ltibia 33.8052
lfoot -3.76976 -6.42917
ltoes -15.5728
32
root -13.683 17.4582 -0.284295 130.291 -74.7589 -140.885
lowerback 8.21734 1.49214 9.37074
upperback 5.21486 2.18991 5.60484
thorax 1.01282 1.05432 0.433971
lowerneck -8.36542 -2.55073 -4.14973
upperneck -8.95335 -3.25768 3.41672
head -1.27727 -1.66912 1.72978
rclavicle -1.23246e-014 0
rhumerus -7.26809 15.1423 -72.1175
rradius 71.039
rwrist 0.854382
rhand -12.2494 7.41714
rfingers 7.12502
rthumb 13.8166 -22.104
lclavicle -1.23246e-014 0
lhumerus -42.5529 0.0619632 90.2463
lradius 12.4308
lwrist 4.33499
lhand -4.50754 -5.36038
lfingers 7.12502
lthumb 21.2665 23.4929
rfemur 8.47266 -3.30158 32.3231
rtibia 24.252
rfoot -13.473 2.80506
rtoes 1.85396
lfemur -15.8005 2.0771 -3.3879
ltibia 31.2456
lfoot -3.78447 -5.36957
ltoes -15.9198
33
root -13.8129 17.4571 -0.274751 131.811 -74.3135 -142.212
lowerback 8.08763 1.69231 9.43292
upperback 5.16759 2.45249 5.54907
thorax 1.05612 1.19071 0.328317
lowerneck -8.38674 -2.5681 -4.10494
upperneck -8.93492 -3.28038 3.47375
head -1.26658 -1.68211 1.73932
rclavicle -4.14963e-014 -2.54444e-014
rhumerus -5.6579 15.3822 -71.6039
rradius 71.2132
rwrist 0.915114
rhand -12.4546 7.35618
rfingers 7.12502
rthumb 13.6189 -22.1783
lclavicle -4.14963e-014 -2.54444e-014
lhumerus -42.4696 0.505861 89.7018
lradius 12.2422
lwrist 3.93834
lhand -4.42829 -5.32209
lfingers 7.12502
lthumb 21.3426 23.5226
rfemur 8.8769 -3.08748 32.1987
rtibia 23.9483
rfoot -13.6605 3.14177
rtoes 1.50303
lfemur -15.5889 1.08637 -3.07124
ltibia 28.7876
lfoot -3.68653 -4.21971
ltoes -15.586
34
root -13.9424 17.4554 -0.264595 133.209 -73.8379 -143.445
lowerback 7.99651 1.89281 9.52841
upperback 5.12125 2.72184 5.4903
thorax 1.08297 1.33032 0.200918
lowerneck -8.42104 -2.58897 -4.09304
upperneck -8.90361 -3.3037 3.55657
head -1.24873 -1.69446 1.76256
rclavicle 4.83544e-014 7.31528e-014
rhumerus -4.03798 15.6191 -71.07
rradius 71.3565
rwrist 0.940256
rhand -12.6933 7.28689
rfingers 7.12502
rthumb 13.3888 -22.2629
lclavicle 4.83544e-014 7.31528e-014
lhumerus -42.379 0.796818 89.2558
lradius 12.0749
lwrist 3.76869
lhand -4.46266 -5.34368
lfingers 7.12502
lthumb 21.3096 23.5047
rfemur 9.29253 -2.88259 32.084
rtibia 23.6781
rfoot -13.8713 3.47634
rtoes 1.04633
lfemur -15.3408 -0.0587565 -2.68872
ltibia 26.4276
lfoot -3.67235 -2.93712
ltoes -15.3537
35
root -14.0724 17.4491 -0.252945 134.577 -73.3721 -144.656
lowerback 7.90735 2.08691 9.60444
upperback 5.0784 2.98206 5.41641
thorax 1.11279 1.46564 0.0699459
lowerneck -8.45304 -2.6047 -4.06381
upperneck -8.88323 -3.32123 3.65432
head -1.23496 -1.70474 1.78795
rclavicle -2.13694e-015 7.15625e-015
rhumerus -2.38595 15.8873 -70.5241
rradius 71.4543
rwrist 0.814449
rhand -12.9609 7.17089
rfingers 7.12502
rthumb 13.1308 -22.3957
lclavicle -2.13694e-015 7.15625e-015
lhumerus -42.2468 1.11162 88.7727
lradius 11.8912
lwrist 3.59784
lhand -4.52622 -5.44622
lfingers 7.12502
lthumb 21.2486 23.4091
rfemur 9.68309 -2.62444 31.9502
rtibia 23.4565
rfoot -14.0951 3.76726
rtoes 0.736565
lfemur -15.0703 -1.40879 -2.28674
ltibia 24.1657
lfoot -3.71854 -1.4591
ltoes -15.0783
36
root -14.2024 17.4446 -0.240957 135.829 -72.8843 -145.722
lowerback 7.78738 2.28348 9.70748
upperback 5.032 3.24314 5.34303
thorax 1.15938 1.60248 -0.0728703
lowerneck -8.50417 -2.61745 -3.96348
upperneck -8.86273 -3.34344 3.67621
head -1.22007 -1.7189 1.77577
rclavicle -4.95222e-014 -3.02153e-014
rhumerus -0.719658 16.1414 -69.9655
rradius 71.5414
rwrist 0.616955
rhand -13.2536 7.0048
rfingers 7.12502
rthumb 12.8487 -22.5797
lclavicle -4.95222e-014 -3.02153e-014
lhumerus -42.0876 1.4202 88.2816
lradius 11.7121
lwrist 3.3803
lhand -4.68095 -5.61944
lfingers 7.12502
lthumb 21.0999 23.2525
rfemur 10.0241 -2.3545 31.8474
rtibia 23.2754
rfoot -14.339 4.02585
rtoes 0.324961
lfemur -14.8335 -2.95535 -1.80593
ltibia 22.0472
lfoot -3.79077 0.202565
ltoes -14.7531
37
root -14.3334 17.4363 -0.228574 137.03 -72.388 -146.764
lowerback 7.69898 2.48514 9.78897
upperback 4.98194 3.51398 5.27847
thorax 1.18488 1.74252 -0.195748
lowerneck -8.5389 -2.6394 -3.90825
upperneck -8.84509 -3.37362 3.72632
head -1.20741 -1.73587 1.78083
rclavicle 2.34814e-014 -1.19271e-014
rhumerus 0.967122 16.3821 -69.3706
rradius 71.5647
rwrist 0.321957
rhand -13.5378 6.89805
rfingers 7.12502
rthumb 12.5748 -22.7035
lclavicle 2.34814e-014 -1.19271e-014
lhumerus -41.9217 1.62443 87.883
lradius 11.5698
lwrist 3.31245
lhand -4.84378 -5.77716
lfingers 7.12502
lthumb 20.9435 23.1122
rfemur 10.3699 -2.08222 31.727
rtibia 23.1393
rfoot -14.6152 4.28331
rtoes -0.246795
lfemur -14.5889 -4.69773 -1.28308
ltibia 20.1473
lfoot -4.03169 1.98676
ltoes -14.5608
38
root -14.4642 17.4269 -0.215077 138.136 -71.895 -147.703
lowerback 7.60354 2.67472 9.88931
upperback 4.9297 3.76946 5.20053
thorax 1.21466 1.87579 -0.340587
lowerneck -8.59968 -2.65204 -3.86222
upperneck -8.81512 -3.38982 3.78826
head -1.18674 -1.74557 1.79099
rclavicle 2.55438e-014 1.27222e-014
rhumerus 2.74673 16.6071 -68.7772
rradius 71.4694
rwrist -0.0130258
rhand -13.798 6.82473
rfingers 7.12502
rthumb 12.3239 -22.7921
lclavicle 2.55438e-014 1.27222e-014
lhumerus -41.7609 1.56418 87.6703
lradius 11.5337
lwrist 3.5717
lhand -5.09581 -5.88868
lfingers 7.12502
lthumb 20.7014 23.0272
rfemur 10.6967 -1.79189 31.6145
rtibia 23.0037
rfoot -14.8665 4.50901
rtoes -0.6944
lfemur -14.3631 -6.41693 -0.75625
ltibia 18.4966
lfoot -4.49994 3.7242
ltoes -15.1292
39
root -14.5959 17.418 -0.201016 139.162 -71.3849 -148.573
lowerback 7.51315 2.86662 10.0124
upperback 4.88327 4.02867 5.12023
thorax 1.2519 2.01155 -0.499218
lowerneck -8.68629 -2.6655 -3.82652
upperneck -8.76704 -3.40604 3.84442
head -1.15598 -1.75463 1.80037
rclavicle -5.02925e-014 -2.78299e-014
rhumerus 4.5843 16.8039 -68.1715
rradius 71.3382
rwrist -0.456546
rhand -14.0128 6.74855
rfingers 7.12502
rthumb 12.1168 -22.8806
lclavicle -5.02925e-014 -2.78299e-014
lhumerus -41.566 1.54068 87.4115
lradius 11.4987
lwrist 3.71368
lhand -5.25463 -5.9229
lfingers 7.12502
lthumb 20.5487 23.0096
rfemur 11.0254 -1.51203 31.499
rtibia 22.8955
rfoot -15.1277 4.74942
rtoes -1.229
lfemur -14.0911 -7.96082 -0.269626
ltibia 17.1314
lfoot -5.21432 5.28801
ltoes -17.1943
40
root -14.7288 17.407 -0.187357 140.073 -70.8895 -149.345
lowerback 7.42735 3.05429 10.1378
upperback 4.84413 4.28209 5.0323
thorax 1.29649 2.14501 -0.665439
lowerneck -8.82692 -2.69886 -3.80409
upperneck -8.69287 -3.44558 3.92899
head -1.10641 -1.77478 1.81946
rclavicle 3.81915e-014 1.74931e-014
rhumerus 6.49781 16.9513 -67.5576
rradius 71.1017
rwrist -0.946024
rhand -14.1924 6.74409
rfingers 7.12502
rthumb 11.9436 -22.8952
lclavicle 3.81915e-014 1.74931e-014
lhumerus -41.3265 1.47208 87.1901
lradius 11.4903
lwrist 3.83917
lhand -5.41884 -5.91197
lfingers 7.12502
lthumb 20.3909 23.0374
rfemur 11.3776 -1.14076 31.425
rtibia 22.8058
rfoot -15.4003 4.8586
rtoes -1.6926
lfemur -13.8402 -9.26177 0.152011
ltibia 16.0527
lfoot -5.94563 6.63013
ltoes -19.6342
41
root -14.8626 17.3957 -0.173015 141.001 -70.3988 -150.127
lowerback 7.3368 3.24951 10.2404
upperback 4.797 4.54499 4.94412
thorax 1.33593 2.28261 -0.819037
lowerneck -8.96272 -2.73794 -3.79254
upperneck -8.6192 -3.49331 3.98608
head -1.05783 -1.79836 1.83143
rclavicle 2.79541e-014 2.8625e-014
rhumerus 8.458 17.0694 -66.891
rradius 70.79
rwrist -1.38011
rhand -14.3414 6.75791
rfingers 7.12502
rthumb 11.7999 -22.8897
lclavicle 2.79541e-014 2.8625e-014
lhumerus -41.0813 1.39584 86.9827
lradius 11.5207
lwrist 3.87317
lhand -5.50762 -5.80231
lfingers 7.12502
lthumb 20.3056 23.1562
rfemur 11.7074 -0.796034 31.3102
rtibia 22.7308
rfoot -15.6594 5.00537
rtoes -2.3512
lfemur -13.6434 -10.3548 0.49174
ltibia 15.1959
lfoot -6.57893 7.82112
ltoes -21.9831
42
root -14.9981 17.3806 -0.15808 141.761 -69.9057 -150.747
lowerback 7.25674 3.43866 10.3996
upperback 4.73799 4.80551 4.84827
thorax 1.36479 2.41963 -1.01083
lowerneck -9.09063 -2.78887 -3.79611
upperneck -8.54223 -3.55412 4.08065
head -1.00799 -1.82807 1.858
rclavicle -2.88238e-015 8.74653e-015
rhumerus 10.4288 17.1106 -66.2425
rradius 70.4184
rwrist -1.78711
rhand -14.4026 6.82023
rfingers 7.12502
rthumb 11.7409 -22.8307
lclavicle -2.88238e-015 8.74653e-015
lhumerus -40.8229 1.27405 86.7764
lradius 11.5641
lwrist 3.90495
lhand -5.54169 -5.64494
lfingers 7.12502
lthumb 20.2729 23.3171
rfemur 12.0435 -0.462565 31.2298
rtibia 22.6841
rfoot -15.9653 5.09838
rtoes -3.12604
lfemur -13.4538 -11.2456 0.804225
ltibia 14.4658
lfoot -7.06512 8.8135
ltoes -23.9229
43
root -15.1345 17.365 -0.142994 142.596 -69.4555 -151.461
lowerback 7.16002 3.62665 10.4752
upperback 4.69888 5.05561 4.75506
thorax 1.41648 2.55111 -1.15137
lowerneck -9.25905 -2.83754 -3.83127
upperneck -8.46281 -3.60958 4.16544
head -0.950585 -1.85408 1.88638
rclavicle 3.27498e-014 9.54166e-015
rhumerus 12.4909 17.1497 -65.5143
rradius 69.9731
rwrist -2.10636
rhand -14.4612 6.87175
rfingers 7.12502
rthumb 11.6844 -22.7824
lclavicle 3.27498e-014 9.54166e-015
lhumerus -40.539 1.16525 86.6258
lradius 11.6601
lwrist 3.8948
lhand -5.5622 -5.42938
lfingers 7.12502
lthumb 20.2532 23.5347
rfemur 12.378 -0.157236 31.0609
rtibia 22.6649
rfoot -16.2559 5.24679
rtoes -3.81548
lfemur -13.2376 -12.0553 1.01585
ltibia 13.7949
lfoot -7.39147 9.67841
ltoes -25.1264
44
root -15.2722 17.3486 -0.128385 143.283 -68.9903 -152.043
lowerback 7.08464 3.81359 10.5917
upperback 4.65389 5.30944 4.66327
thorax 1.45626 2.68439 -1.3131
lowerneck -9.43575 -2.90325 -3.88351
upperneck -8.36464 -3.68469 4.27848
head -0.88406 -1.88909 1.92606
rclavicle -2.79789e-014 -1.82882e-014
rhumerus 14.5426 17.122 -64.75
rradius 69.4797
rwrist -2.36064
rhand -14.448 6.92052
rfingers 7.12502
rthumb 11.6971 -22.7329
lclavicle -2.79789e-014 -1.82882e-014
lhumerus -40.2486 0.999735 86.4833
lradius 11.7734
lwrist 3.8892
lhand -5.49832 -5.20287
lfingers 7.12502
lthumb 20.3146 23.7547
rfemur 12.7534 0.250525 30.9816
rtibia 22.6314
rfoot -16.5424 5.24499
rtoes -4.75707
lfemur -13.0207 -12.8115 1.25241
ltibia 13.2471
lfoot -7.60046 10.3876
ltoes -25.336
45
root -15.4109 17.3313 -0.112424 144.002 -68.5519 -152.642
lowerback 6.9959 4.00939 10.7177
upperback 4.60273 5.57599 4.54027
thorax 1.50423 2.8257 -1.51052
lowerneck -9.64488 -2.98629 -3.91517
upperneck -8.25806 -3.78456 4.3811
head -0.808925 -1.93667 1.95732
rclavicle -5.02428e-014 0
rhumerus 16.5806 17.0035 -63.9428
rradius 68.97
rwrist -2.57072
rhand -14.4022 6.96045
rfingers 7.12502
rthumb 11.7413 -22.6905
lclavicle -5.02428e-014 0
lhumerus -39.9389 0.654011 86.4232
lradius 11.9313
lwrist 4.04684
lhand -5.42691 -5.02708
lfingers 7.12502
lthumb 20.3832 23.9232
rfemur 13.1244 0.662353 30.8605
rtibia 22.5583
rfoot -16.7931 5.23718
rtoes -5.68418
lfemur -12.8768 -13.5613 1.44428
ltibia 12.8585
lfoot -7.68212 11.0291
ltoes -24.6857
